<svg version="1.1" id="Layer_1" xmlns="http://www.w3.org/2000/svg" xmlns:xlink="http://www.w3.org/1999/xlink" x="0px" y="0px"
	 width="100%" viewBox="300 230 360 210" enable-background="new 0 0 939 572" xml:space="preserve">
<path fill="#DADADA" opacity="1.000000" stroke="none" 
	d="
M888.000000,573.000000 
	C592.000000,573.000000 296.500000,573.000000 1.000000,573.000000 
	C1.000000,382.333344 1.000000,191.666672 1.000000,1.000000 
	C314.000000,1.000000 627.000000,1.000000 940.000000,1.000000 
	C940.000000,191.666672 940.000000,382.333344 940.000000,573.000000 
	C922.833313,573.000000 905.666687,573.000000 888.000000,573.000000 
M423.596283,394.720093 
	C417.946503,374.778503 412.393158,354.808533 406.550690,334.923584 
	C405.592834,331.663605 406.229950,330.118713 409.136078,328.719421 
	C414.837311,325.974365 418.779724,321.296356 420.236847,315.306458 
	C421.912872,308.416840 423.478485,301.268433 423.448761,294.239349 
	C423.360229,273.290131 415.852905,259.474121 392.606537,256.941803 
	C375.980499,255.130661 359.073181,255.899475 342.290680,255.549042 
	C342.048370,255.543976 341.797424,255.953278 341.649353,256.082733 
	C341.649353,305.389862 341.649353,354.606781 341.649353,403.718201 
	C350.738586,403.718201 359.468323,403.718201 368.726074,403.718201 
	C368.726074,380.997375 368.726074,358.629181 368.726074,336.138794 
	C373.066040,336.138794 376.865723,336.138794 380.995758,336.138794 
	C387.020905,358.821930 393.038757,381.477600 398.984100,403.860352 
	C408.381805,403.860352 417.010986,403.860352 426.090271,403.860352 
	C425.276794,400.867920 424.548126,398.187531 423.596283,394.720093 
M524.675232,285.019897 
	C524.416321,284.057190 524.134888,283.099884 523.901733,282.130981 
	C519.893616,265.472961 509.820221,256.813599 492.729523,255.803604 
	C484.762665,255.332794 476.761658,255.390640 468.775116,255.317017 
	C460.658600,255.242172 452.540833,255.300476 444.333191,255.300476 
	C444.333191,305.175842 444.333191,354.527740 444.333191,403.725464 
	C453.407562,403.725464 462.143677,403.725464 471.318604,403.725464 
	C471.318604,381.653809 471.318604,359.925537 471.318604,337.895325 
	C477.752716,337.895325 483.746796,338.109924 489.720978,337.855865 
	C509.130096,337.030487 521.852600,326.913208 524.484070,309.230347 
	C525.620361,301.595093 524.767212,293.663788 524.675232,285.019897 
M586.859131,283.994812 
	C587.698059,288.655457 588.536987,293.316071 589.403137,298.127716 
	C597.081726,296.744446 604.400146,295.426056 611.987671,294.059174 
	C610.920044,283.176514 609.298157,272.880249 602.025146,264.570343 
	C592.014282,253.132172 578.831360,252.656723 565.243042,254.747803 
	C554.752563,256.362152 546.078064,261.310699 541.006531,271.074738 
	C533.839294,284.873627 533.982666,306.752960 548.564941,320.968628 
	C557.844543,330.014893 567.726868,338.439636 577.221802,347.269073 
	C585.331604,354.810638 590.036194,363.737946 588.055786,375.282532 
	C586.959717,381.671997 583.811646,384.707031 577.437012,385.011414 
	C570.233459,385.355377 565.577454,382.484924 563.179749,375.057312 
	C561.265747,369.128143 560.311462,362.889099 558.842285,356.394409 
	C551.559753,357.807007 543.976501,359.277954 536.263306,360.774078 
	C536.538940,364.001007 536.702637,366.642242 536.998657,369.268585 
	C539.344360,390.077332 550.203735,402.562408 569.343628,405.470703 
	C583.121277,407.564209 595.766968,405.064697 605.798401,394.188934 
	C618.346069,380.585083 616.816162,354.893280 606.796143,343.113861 
	C597.691345,332.410492 587.156189,322.914520 577.138000,313.001068 
	C571.609009,307.529785 565.123108,302.892456 562.700989,294.936829 
	C559.140686,283.242493 565.180542,273.450348 575.562683,273.991028 
	C581.666931,274.308960 584.682556,278.063263 586.859131,283.994812 
z"/>
<path fill="#051242" opacity="1.000000" stroke="none" 
	d="
M423.707886,395.113586 
	C424.548126,398.187531 425.276794,400.867920 426.090271,403.860352 
	C417.010986,403.860352 408.381805,403.860352 398.984100,403.860352 
	C393.038757,381.477600 387.020905,358.821930 380.995758,336.138794 
	C376.865723,336.138794 373.066040,336.138794 368.726074,336.138794 
	C368.726074,358.629181 368.726074,380.997375 368.726074,403.718201 
	C359.468323,403.718201 350.738586,403.718201 341.649353,403.718201 
	C341.649353,354.606781 341.649353,305.389862 341.649353,256.082733 
	C341.797424,255.953278 342.048370,255.543976 342.290680,255.549042 
	C359.073181,255.899475 375.980499,255.130661 392.606537,256.941803 
	C415.852905,259.474121 423.360229,273.290131 423.448761,294.239349 
	C423.478485,301.268433 421.912872,308.416840 420.236847,315.306458 
	C418.779724,321.296356 414.837311,325.974365 409.136078,328.719421 
	C406.229950,330.118713 405.592834,331.663605 406.550690,334.923584 
	C412.393158,354.808533 417.946503,374.778503 423.707886,395.113586 
M394.174805,312.530426 
	C399.854614,302.709747 399.368561,292.422638 395.518433,282.352997 
	C394.433258,279.514862 391.027405,276.374420 388.125732,275.665466 
	C381.880707,274.139618 375.271759,274.103424 368.776245,273.454010 
	C368.776245,289.255463 368.776245,303.821075 368.776245,318.338684 
	C379.191315,320.160004 387.816895,318.355988 394.174805,312.530426 
z"/>
<path fill="#041041" opacity="1.000000" stroke="none" 
	d="
M524.746521,285.443420 
	C524.767212,293.663788 525.620361,301.595093 524.484070,309.230347 
	C521.852600,326.913208 509.130096,337.030487 489.720978,337.855865 
	C483.746796,338.109924 477.752716,337.895325 471.318604,337.895325 
	C471.318604,359.925537 471.318604,381.653809 471.318604,403.725464 
	C462.143677,403.725464 453.407562,403.725464 444.333191,403.725464 
	C444.333191,354.527740 444.333191,305.175842 444.333191,255.300476 
	C452.540833,255.300476 460.658600,255.242172 468.775116,255.317017 
	C476.761658,255.390640 484.762665,255.332794 492.729523,255.803604 
	C509.820221,256.813599 519.893616,265.472961 523.901733,282.130981 
	C524.134888,283.099884 524.416321,284.057190 524.746521,285.443420 
M480.305176,318.931549 
	C481.798035,318.838745 483.297150,318.803741 484.782776,318.643768 
	C494.710175,317.574890 498.698975,314.232513 499.535706,304.470001 
	C500.097229,297.917816 499.613708,291.185181 498.787354,284.635529 
	C498.192078,279.917450 495.037354,276.256683 490.031769,275.594971 
	C483.885773,274.782471 477.652618,274.629547 471.480804,274.193176 
	C471.480804,289.717682 471.480804,304.246887 471.480804,318.931671 
	C474.385956,318.931671 476.879181,318.931671 480.305176,318.931549 
z"/>
<path fill="#041041" opacity="1.000000" stroke="none" 
	d="
M586.741516,283.612823 
	C584.682556,278.063263 581.666931,274.308960 575.562683,273.991028 
	C565.180542,273.450348 559.140686,283.242493 562.700989,294.936829 
	C565.123108,302.892456 571.609009,307.529785 577.138000,313.001068 
	C587.156189,322.914520 597.691345,332.410492 606.796143,343.113861 
	C616.816162,354.893280 618.346069,380.585083 605.798401,394.188934 
	C595.766968,405.064697 583.121277,407.564209 569.343628,405.470703 
	C550.203735,402.562408 539.344360,390.077332 536.998657,369.268585 
	C536.702637,366.642242 536.538940,364.001007 536.263306,360.774078 
	C543.976501,359.277954 551.559753,357.807007 558.842285,356.394409 
	C560.311462,362.889099 561.265747,369.128143 563.179749,375.057312 
	C565.577454,382.484924 570.233459,385.355377 577.437012,385.011414 
	C583.811646,384.707031 586.959717,381.671997 588.055786,375.282532 
	C590.036194,363.737946 585.331604,354.810638 577.221802,347.269073 
	C567.726868,338.439636 557.844543,330.014893 548.564941,320.968628 
	C533.982666,306.752960 533.839294,284.873627 541.006531,271.074738 
	C546.078064,261.310699 554.752563,256.362152 565.243042,254.747803 
	C578.831360,252.656723 592.014282,253.132172 602.025146,264.570343 
	C609.298157,272.880249 610.920044,283.176514 611.987671,294.059174 
	C604.400146,295.426056 597.081726,296.744446 589.403137,298.127716 
	C588.536987,293.316071 587.698059,288.655457 586.741516,283.612823 
z"/>
<path fill="#DADADA" opacity="1.000000" stroke="none" 
	d="
M393.996063,312.865051 
	C387.816895,318.355988 379.191315,320.160004 368.776245,318.338684 
	C368.776245,303.821075 368.776245,289.255463 368.776245,273.454010 
	C375.271759,274.103424 381.880707,274.139618 388.125732,275.665466 
	C391.027405,276.374420 394.433258,279.514862 395.518433,282.352997 
	C399.368561,292.422638 399.854614,302.709747 393.996063,312.865051 
z"/>
<path fill="#D9D9D9" opacity="1.000000" stroke="none" 
	d="
M479.838776,318.931610 
	C476.879181,318.931671 474.385956,318.931671 471.480804,318.931671 
	C471.480804,304.246887 471.480804,289.717682 471.480804,274.193176 
	C477.652618,274.629547 483.885773,274.782471 490.031769,275.594971 
	C495.037354,276.256683 498.192078,279.917450 498.787354,284.635529 
	C499.613708,291.185181 500.097229,297.917816 499.535706,304.470001 
	C498.698975,314.232513 494.710175,317.574890 484.782776,318.643768 
	C483.297150,318.803741 481.798035,318.838745 479.838776,318.931610 
z"/>
</svg>
